<svg width="166" height="29" viewBox="0 0 166 29" fill="none" xmlns="http://www.w3.org/2000/svg">
<path d="M10.7011 17.0943V17.0786L7.8418 20.1721V20.1878L10.7011 17.0943Z" fill="#E40571"/>
<path d="M17.528 15.1155L22.0062 4.86914L14.914 12.5244L13.975 13.5373L13.9609 13.5766L15.0332 12.4224L17.528 15.1155Z" fill="#E40571"/>
<path d="M53.8077 27.4819L42.2303 0.919922L30.625 27.4819H35.0681L37.1495 22.5746L42.2023 10.4046L49.3295 27.4819H53.8077Z" fill="#E40571"/>
<path d="M28.8943 2.15283H24.6895V22.8575L28.8943 27.3957V2.15283Z" fill="#E40571"/>
<path d="M14.9123 12.5247L22.0045 4.86936L23.1818 2.17627H18.7387L16.6503 7.08351L14.625 11.9829L15.0175 12.4069L14.9123 12.5247Z" fill="#393669"/>
<path d="M14.5571 12.1396L13.9746 13.5372L14.915 12.5244L14.5571 12.1396Z" fill="#393669"/>
<path d="M4.47114 2.17627H0L7.84202 20.1721L10.7013 17.0786L4.47114 2.17627Z" fill="#393669"/>
<path d="M15.0198 12.4069L14.6268 11.9829L14.5566 12.1399L14.9146 12.5247L15.0198 12.4069Z" fill="#393669"/>
<path d="M11.5701 28.738L17.5269 15.1155L15.0321 12.4224L13.9598 13.5765L11.6051 19.2532L10.7011 17.0941L7.8418 20.1876L11.5701 28.738Z" fill="#00AEEF"/>
<path d="M28.8943 27.3956L24.6895 22.8574V27.482H28.8943V27.3956Z" fill="#00AEEF"/>
<path d="M63.8926 13.7104C65.7777 12.9488 66.885 11.0565 66.885 8.62254C66.885 4.87733 63.9907 2.15283 60.3255 2.15283H51.8457V16.1836H60.7249C62.9114 16.1836 64.4252 17.7068 64.4252 19.7482C64.4252 21.7897 62.8764 23.3835 60.76 23.3835H56.0575V27.4899H61.4678C65.5745 27.4899 68.602 24.2943 68.602 20.0073C68.602 16.8432 66.9901 14.3385 63.8926 13.7182V13.7104ZM59.7578 12.3678H56.0646V6.25921H59.7928C61.5449 6.25921 62.7853 7.57043 62.7853 9.23497C62.7853 11.0487 61.5378 12.3599 59.7578 12.3599V12.3678Z" fill="white"/>
<path d="M131.191 18.1463L115.213 1.21045V27.4819H119.418V11.5667L135.396 28.4319V2.15264H131.191V18.1463Z" fill="white"/>
<path d="M162.572 1.63428C160.701 1.63428 159.188 3.18889 159.188 5.37949C159.188 7.57008 160.701 9.12469 162.572 9.12469C164.444 9.12469 165.999 7.57008 165.999 5.37949C165.999 3.18889 164.465 1.63428 162.572 1.63428ZM162.572 8.41805C161.017 8.41805 159.86 7.16965 159.86 5.37949C159.86 3.58932 161.017 2.29381 162.572 2.29381C164.128 2.29381 165.306 3.54221 165.306 5.37949C165.306 7.21676 164.128 8.41805 162.572 8.41805Z" fill="white"/>
<path d="M163.939 4.48471C163.939 3.7074 163.434 3.14209 162.699 3.14209H161.332V7.45261H162.047V5.87444H162.551L163.392 7.45261H164.233L163.308 5.73311C163.708 5.47401 163.939 5.02647 163.939 4.48471ZM162.678 5.21491H162.047V3.89584H162.678C162.993 3.89584 163.224 4.1785 163.224 4.53182C163.224 4.9087 162.993 5.21491 162.678 5.21491Z" fill="white"/>
<path d="M147.17 2.15283H138.795V23.3835H143V6.25921H146.868C153.056 6.25921 155.278 9.92591 155.278 14.8724C155.278 19.8189 153.056 23.3757 146.903 23.3757H143.007V27.4821H147.205C155.145 27.4821 159.483 22.3236 159.483 14.8724C159.483 7.42125 155.11 2.15283 147.17 2.15283Z" fill="white"/>
<path d="M90.3125 27.4819H94.7556L96.844 22.5746L101.89 10.4046L109.017 27.4819H113.495L101.918 0.919922L90.3125 27.4819Z" fill="white"/>
<path d="M88.106 10.185C88.106 5.60753 84.6721 2.15283 80.5023 2.15283H71.3848V27.4821H75.5896V6.25921H80.3971C82.4155 6.25921 83.9292 7.9316 83.9292 10.2557C83.9292 12.5797 82.3454 14.4013 80.0607 14.4013H77.5028L84.7702 27.4821H89.5146L83.8311 17.3771C86.354 16.2464 88.106 13.5219 88.106 10.185Z" fill="white"/>
</svg>
